<?xml version="1.0" encoding="iso-8859-1"?>
<!-- Generator: Adobe Illustrator 17.0.1, SVG Export Plug-In . SVG Version: 6.00 Build 0)  -->
<!DOCTYPE svg PUBLIC "-//W3C//DTD SVG 1.1//EN" "http://www.w3.org/Graphics/SVG/1.1/DTD/svg11.dtd">
<svg version="1.1" id="Layer_1" xmlns="http://www.w3.org/2000/svg" xmlns:xlink="http://www.w3.org/1999/xlink" x="0px" y="0px"
	 width="236.111px" height="215.972px" viewBox="0 0 236.111 215.972" style="enable-background:new 0 0 236.111 215.972;"
	 xml:space="preserve">
<circle style="fill:#213555;" cx="117.502" cy="107.891" r="85.776"/>
<g>
	<path style="fill:#F4F4F4;" d="M107.296,152.111l4.38,4.893l-0.082,6.214l7.214,4.191l5.353-3.148l6.422,1.386l3.578,5.074
		l8.302-0.848l2.48-5.696l6.011-2.653l5.879,2.002l6.218-5.566l-1.343-6.07l3.301-5.673l5.932-1.838l1.76-8.155l-4.651-4.126
		l-0.666-6.531l3.719-4.978l-3.371-7.631l-6.184-0.603l-4.38-4.893l0.082-6.214l-7.214-4.191l-5.353,3.148l-6.422-1.386
		l-3.578-5.074l-8.302,0.848l-2.48,5.696l-6.011,2.653l-5.879-2.002l-6.218,5.566l1.343,6.07l-3.301,5.673l-5.932,1.838l-1.76,8.155
		l4.651,4.126l0.666,6.531l-3.719,4.978l3.371,7.631L107.296,152.111z M113.216,141.602c-5.174-11.712,0.127-25.4,11.839-30.574
		s25.4,0.127,30.574,11.839s-0.127,25.4-11.839,30.574S118.39,153.313,113.216,141.602z"/>
</g>
<g>
	<path style="fill:#F4F4F4;" d="M78.856,95.264l3.548,3.044l0.522,4.393l5.482,2.284l3.484-2.721l4.661,0.379l2.999,3.247
		l5.78-1.373l1.218-4.251l3.994-2.434l4.335,0.864l3.868-4.508l-1.514-4.158l1.8-4.311l4.015-1.85l0.481-5.919l-3.667-2.477
		l-1.079-4.547l2.16-3.86l-3.091-5.07l-4.42,0.152l-3.548-3.044l-0.522-4.393l-5.482-2.284l-3.484,2.721l-4.661-0.379l-2.999-3.247
		l-5.78,1.373l-1.218,4.251l-3.994,2.434l-4.335-0.864l-3.868,4.508l1.514,4.158l-1.8,4.311l-4.015,1.85l-0.481,5.919l3.667,2.477
		l1.079,4.547l-2.16,3.86l3.091,5.07L78.856,95.264z M82.053,87.296c-4.744-7.782-2.281-17.936,5.501-22.68
		s17.936-2.281,22.68,5.501s2.281,17.936-5.501,22.68S86.797,95.078,82.053,87.296z"/>
</g>
</svg>
