<?xml version="1.0" encoding="iso-8859-1"?>
<!-- Generator: Adobe Illustrator 17.0.1, SVG Export Plug-In . SVG Version: 6.00 Build 0)  -->
<!DOCTYPE svg PUBLIC "-//W3C//DTD SVG 1.1//EN" "http://www.w3.org/Graphics/SVG/1.1/DTD/svg11.dtd">
<svg version="1.1" id="Layer_1" xmlns="http://www.w3.org/2000/svg" xmlns:xlink="http://www.w3.org/1999/xlink" x="0px" y="0px"
	 width="792px" height="612px" viewBox="0 0 792 612" style="enable-background:new 0 0 792 612;" xml:space="preserve">
<path style="fill:#2B2B2B;" d="M656.517,377.746c-2.562-1.667-6.318-4.112-11.1-7.224c-2.37-1.581-4.994-3.332-7.851-5.237
	c-1.429-0.948-2.916-1.935-4.458-2.959c-1.531-1.042-3.118-2.123-4.757-3.239c-3.28-2.22-6.771-4.583-10.45-7.074
	c-3.664-2.512-7.517-5.154-11.537-7.911c-8.02-5.545-16.708-11.552-25.898-17.905c-9.21-6.339-18.923-13.025-28.97-19.94
	c-2.545-1.727-5.001-3.455-7.675-5.219c-1.377-0.879-2.74-1.789-4.147-2.649c-1.427-0.835-2.86-1.673-4.296-2.513
	c-5.835-3.233-12.076-6.081-18.71-8.141c-6.62-2.07-13.589-3.473-20.668-3.912c-7.077-0.482-14.226-0.018-21.166,1.196
	c-6.947,1.224-13.673,3.209-20.082,5.677c-6.427,2.441-12.529,5.413-18.371,8.589c-2.909,1.607-5.774,3.245-8.566,4.942
	c-2.784,1.711-5.518,3.452-8.187,5.226c-5.35,3.54-10.51,7.143-15.474,10.788c-9.956,7.247-19.265,14.464-28.19,21.061
	c-7.442,5.522-8.939,7.12-13.967,10.445c-0.071-0.118-0.141-0.236-0.213-0.355c-0.258-0.441-0.517-0.825-0.776-1.314l-0.787-1.443
	c-0.53-0.963-1.063-1.932-1.599-2.906c-0.542-0.992-1.086-1.99-1.634-2.994c-0.582-1.054-1.245-2.096-1.873-3.154
	c-0.661-1.05-1.377-2.094-2.085-3.146c-0.794-1.023-1.517-2.078-2.394-3.087c-1.662-2.05-3.63-4.021-5.832-5.872
	c-2.231-1.83-4.838-3.482-7.741-4.676c-2.897-1.206-6.074-1.933-9.203-2.142c-3.134-0.22-6.201,0.039-9.068,0.576
	c-2.874,0.553-5.585,1.35-8.188,2.25c-5.179,1.84-9.946,4.047-14.546,6.376c-4.606,2.331-9.031,4.682-13.498,7.011
	c-8.823,4.591-17.69,9.161-26.512,13.239c-2.201,1.04-4.398,2.073-6.606,3.008c-2.199,0.971-4.386,1.938-6.561,2.898
	c-4.401,1.737-8.723,3.571-13.052,5.085c-4.292,1.667-8.62,2.904-12.818,4.308c-2.127,0.598-4.231,1.189-6.309,1.774
	c-1.039,0.301-2.075,0.588-3.118,0.814c-1.038,0.252-2.07,0.502-3.095,0.75c-4.083,1.087-8.147,1.757-12.053,2.599
	c-1.963,0.373-3.909,0.666-5.814,0.995c-1.907,0.318-3.778,0.65-5.629,0.886c-3.696,0.509-7.24,1.046-10.644,1.397
	c-3.397,0.4-6.624,0.786-9.675,1.061c-3.052,0.297-5.909,0.576-8.55,0.833c-2.65,0.236-5.083,0.453-7.282,0.648
	c-4.417,0.393-7.888,0.702-10.254,0.913c-2.369,0.235-3.632,0.361-3.632,0.361s1.258,0.173,3.616,0.496
	c1.179,0.15,2.634,0.335,4.344,0.552c1.711,0.222,3.672,0.474,5.886,0.675c4.422,0.45,9.805,0.953,16,1.286
	c3.096,0.239,6.401,0.276,9.893,0.389c3.49,0.153,7.169,0.03,11.019,0.011c1.926,0.016,3.889-0.123,5.894-0.227
	c2.004-0.118,4.051-0.196,6.131-0.354c4.153-0.408,8.465-0.764,12.866-1.474c4.43-0.546,8.903-1.542,13.511-2.44
	c4.553-1.089,9.23-2.199,13.867-3.657c4.704-1.298,9.318-3.025,14.043-4.666c4.626-1.822,9.379-3.567,13.974-5.668
	c9.346-3.948,18.442-8.582,27.549-13.225c4.464-2.358,8.92-4.789,13.261-7.029c4.356-2.214,8.616-4.373,12.765-5.95
	c4.135-1.542,8.128-2.586,11.568-2.492c3.444,0.07,6.479,1.198,9.51,3.323c2.993,2.17,5.74,5.217,8.212,8.545
	c0.6,0.857,1.226,1.677,1.803,2.552c0.605,0.928,1.208,1.85,1.806,2.767c0.612,0.93,1.219,1.853,1.823,2.771
	c0.593,0.917,1.198,1.815,1.926,2.778c1.392,1.882,2.734,3.769,4.185,5.442c0.712,0.854,1.418,1.702,2.119,2.543
	c0.751,0.802,1.497,1.598,2.236,2.387c1.439,1.604,3.058,3.008,4.558,4.446c0.738,0.732,1.575,1.353,2.348,2.019
	c0.787,0.652,1.558,1.303,2.347,1.917c6.373,4.858,12.849,8.259,18.708,10.67c5.87,2.417,11.131,3.933,15.484,4.97
	c1.089,0.258,2.111,0.525,3.084,0.733c0.975,0.193,1.889,0.375,2.74,0.544c1.696,0.348,3.143,0.606,4.321,0.794
	c2.352,0.373,3.607,0.572,3.607,0.572s-1.172-0.487-3.369-1.401c-1.103-0.434-2.454-0.994-4.023-1.693
	c-1.573-0.685-3.382-1.457-5.368-2.395c-3.99-1.822-8.759-4.168-13.862-7.297c-5.103-3.118-10.522-7.048-15.628-12.066
	c-1.222-1.315-2.53-2.581-3.748-3.983c-1.185-1.437-2.469-2.812-3.584-4.392c-0.274-0.363-0.554-0.732-0.83-1.097
	c5.35-2.903,6.961-4.489,14.825-9.504c9.516-6.078,19.287-12.752,29.375-19.438c5.063-3.315,10.177-6.674,15.422-9.884
	c2.618-1.614,5.272-3.178,7.953-4.702c2.668-1.548,5.376-3.021,8.106-4.458c5.468-2.847,11.089-5.361,16.788-7.522
	c5.703-2.159,11.54-3.807,17.422-4.82c11.752-2.207,23.711-1.426,34.997,1.833c5.638,1.654,11.113,3.904,16.362,6.572
	c1.299,0.701,2.595,1.4,3.886,2.097c1.28,0.724,2.532,1.502,3.795,2.245c2.567,1.543,5.237,3.221,7.818,4.805
	c5.194,3.205,10.292,6.374,15.342,9.403c5.042,3.036,9.939,6.056,14.79,8.88c9.636,5.735,18.857,11.003,27.405,15.792
	c4.304,2.348,8.428,4.599,12.351,6.739c3.943,2.103,7.714,4.053,11.26,5.869c1.772,0.908,3.488,1.788,5.144,2.636
	c1.664,0.836,3.291,1.601,4.847,2.348c3.111,1.488,5.968,2.855,8.549,4.09c2.562,1.263,4.93,2.246,6.963,3.144
	c2.036,0.889,3.769,1.645,5.173,2.258c2.816,1.203,4.318,1.844,4.318,1.844S659.073,379.439,656.517,377.746z"/>
<g>
	<g>
		<path style="fill:#2B2B2B;" d="M474.377,366.212c0,0,0.025-0.029,0.074-0.086c0.065-0.077,0.09-0.101,0.134-0.143
			c0.022-0.022,0.047-0.046,0.075-0.072l0.046-0.044c0.024-0.029,0.049-0.059,0.076-0.09c0.106-0.125,0.228-0.27,0.367-0.434
			c0.568-0.703,1.438-1.801,2.516-3.329c1.065-1.533,2.371-3.436,3.748-5.751c1.384-2.305,2.903-4.97,4.401-7.99
			c0.781-1.494,1.5-3.103,2.283-4.757c0.378-0.833,0.735-1.693,1.115-2.561c0.382-0.868,0.76-1.754,1.108-2.667
			c0.36-0.911,0.726-1.834,1.096-2.769c0.341-0.948,0.685-1.907,1.034-2.877c0.175-0.486,0.35-0.975,0.527-1.467
			c0.16-0.497,0.322-0.997,0.484-1.499c0.324-1.007,0.651-2.024,0.981-3.049c1.202-4.136,2.394-8.463,3.279-12.948
			c0.972-4.472,1.649-9.09,2.233-13.745c0.267-2.329,0.446-4.67,0.67-7.009c0.113-2.339,0.266-4.679,0.349-7.007
			c0.018-2.325,0.084-4.643,0.065-6.934c-0.068-2.288-0.112-4.558-0.198-6.793c-0.152-2.234-0.301-4.431-0.446-6.582
			c-0.193-2.15-0.451-4.248-0.665-6.302c-0.186-2.06-0.546-4.034-0.818-5.963c-0.298-1.924-0.535-3.799-0.909-5.568
			c-0.341-1.781,3.25-2.769,3.89-1.04c0.674,1.724,1.227,3.564,1.853,5.46c0.601,1.901,1.301,3.854,1.839,5.909
			c0.566,2.048,1.186,4.15,1.751,6.318c0.518,2.184,1.048,4.415,1.587,6.684c0.473,2.285,0.911,4.623,1.378,6.993
			c0.418,2.376,0.754,4.797,1.14,7.242c0.321,2.449,0.573,4.931,0.863,7.428c0.179,2.501,0.401,5.021,0.531,7.549
			c0.21,5.055,0.307,10.148,0.069,15.168c-0.152,5.029-0.653,9.974-1.223,14.772c-0.174,1.196-0.347,2.382-0.519,3.557
			c-0.087,0.589-0.174,1.174-0.261,1.757c-0.104,0.58-0.208,1.157-0.311,1.731c-0.209,1.15-0.416,2.288-0.62,3.413
			c-0.239,1.12-0.475,2.226-0.708,3.317c-0.223,1.096-0.481,2.168-0.747,3.223c-0.264,1.056-0.509,2.101-0.78,3.122
			c-0.571,2.034-1.093,4.016-1.7,5.892c-1.146,3.773-2.394,7.196-3.584,10.223c-1.178,3.029-2.379,5.646-3.403,7.814
			c-1.036,2.163-1.965,3.881-2.64,5.086c-0.179,0.309-0.337,0.582-0.474,0.817c-0.034,0.059-0.067,0.115-0.099,0.17
			c-0.041,0.066-0.081,0.13-0.118,0.191c-0.077,0.123-0.146,0.234-0.208,0.333c-0.204,0.328-0.31,0.498-0.31,0.498l-0.043,0.07
			c-3.774,6.06-11.745,7.913-17.805,4.14c-6.06-3.774-7.913-11.745-4.14-17.805C473.548,367.258,473.972,366.69,474.377,366.212z"/>
		<g>
			<path style="fill:#2B2B2B;" d="M498.993,252.258c0,0,0.023-0.099,0.067-0.29c0.047-0.19,0.111-0.481,0.22-0.843
				c0.206-0.734,0.546-1.795,1.065-3.112c0.518-1.317,1.214-2.89,2.128-4.636c0.442-0.886,0.985-1.776,1.535-2.743
				c0.577-0.943,1.199-1.932,1.892-2.934c1.37-2.018,3.015-4.1,4.889-6.209c0.478-0.517,0.971-1.035,1.474-1.559
				c0.252-0.261,0.5-0.53,0.762-0.788c0.267-0.253,0.535-0.507,0.805-0.763c0.542-0.511,1.086-1.034,1.655-1.541
				c0.584-0.492,1.174-0.989,1.768-1.489c0.594-0.504,1.212-0.991,1.856-1.455c0.641-0.47,1.287-0.943,1.937-1.419
				c0.679-0.44,1.361-0.883,2.047-1.327l1.041-0.658l1.081-0.608c0.721-0.41,1.456-0.803,2.19-1.204
				c0.751-0.371,1.515-0.726,2.281-1.078c1.511-0.753,3.132-1.289,4.715-1.906c0.797-0.297,1.627-0.505,2.439-0.759
				c0.819-0.234,1.626-0.503,2.459-0.675c0.831-0.182,1.66-0.363,2.489-0.527c0.415-0.082,0.827-0.172,1.241-0.246l1.252-0.166
				c0.833-0.102,1.662-0.203,2.487-0.304c0.824-0.102,1.656-0.092,2.474-0.141c0.819-0.025,1.633-0.05,2.441-0.075
				c0.808,0.019,1.609,0.072,2.401,0.11c0.792,0.041,1.576,0.084,2.349,0.15c0.771,0.1,1.532,0.208,2.282,0.322
				c0.75,0.11,1.49,0.222,2.217,0.343c0.722,0.157,1.43,0.328,2.126,0.501c2.803,0.602,5.321,1.603,7.618,2.457
				c1.121,0.525,2.192,1.006,3.191,1.499c0.498,0.25,0.986,0.481,1.45,0.728c0.457,0.265,0.9,0.521,1.322,0.784
				c0.845,0.523,1.636,0.989,2.348,1.46c0.355,0.236,0.703,0.442,1.019,0.673c0.317,0.23,0.611,0.465,0.892,0.681
				c2.248,1.728,3.421,2.83,3.421,2.83s-1.66-0.103-4.369-0.483c-1.34-0.229-3.016-0.314-4.853-0.544
				c-0.463-0.046-0.934-0.11-1.417-0.174c-0.488-0.045-0.995-0.065-1.509-0.1c-1.03-0.064-2.092-0.168-3.197-0.255
				c-2.226-0.057-4.585-0.219-7.055-0.132c-0.613,0.002-1.234,0.005-1.863,0.007c-0.628,0.049-1.26,0.088-1.897,0.124
				c-0.637,0.04-1.277,0.073-1.922,0.098c-0.641,0.072-1.288,0.145-1.941,0.219c-0.648,0.067-1.302,0.134-1.961,0.202
				c-0.651,0.108-1.307,0.218-1.967,0.328c-1.323,0.165-2.636,0.474-3.959,0.753l-0.995,0.2l-0.986,0.264
				c-0.656,0.182-1.317,0.35-1.979,0.516c-0.665,0.156-1.305,0.417-1.964,0.604c-0.652,0.214-1.318,0.384-1.961,0.63l-1.94,0.71
				c-0.321,0.124-0.652,0.221-0.97,0.356l-0.954,0.401c-0.634,0.271-1.274,0.525-1.912,0.785c-0.624,0.293-1.244,0.592-1.872,0.871
				l-0.938,0.423l-0.914,0.471c-0.614,0.307-1.224,0.613-1.831,0.916c-0.599,0.328-1.193,0.653-1.784,0.977
				c-0.298,0.16-0.595,0.319-0.891,0.478c-0.294,0.164-0.578,0.341-0.867,0.509c-0.573,0.344-1.153,0.671-1.726,1.001
				c-0.563,0.35-1.12,0.696-1.672,1.039c-1.122,0.665-2.167,1.406-3.235,2.072c-2.067,1.419-4.076,2.76-5.863,4.112
				c-1.821,1.318-3.469,2.592-4.944,3.737c-1.478,1.144-2.755,2.181-3.829,3.036C500.226,251.253,498.993,252.258,498.993,252.258z"
				/>
			<path style="fill:#2B2B2B;" d="M498.421,252.375c0,0-0.014-0.108-0.04-0.319c-0.023-0.21-0.066-0.527-0.091-0.935
				c-0.066-0.82-0.119-2.021-0.091-3.55c0.027-1.528,0.134-3.383,0.394-5.498c0.11-1.064,0.318-2.173,0.503-3.361
				c0.223-1.175,0.469-2.414,0.785-3.692c0.606-2.567,1.464-5.304,2.534-8.159c0.29-0.706,0.583-1.421,0.88-2.145
				c0.153-0.361,0.298-0.729,0.461-1.091c0.17-0.359,0.342-0.72,0.514-1.083c0.347-0.726,0.691-1.465,1.066-2.198
				c0.396-0.724,0.795-1.455,1.198-2.191c0.4-0.74,0.833-1.472,1.299-2.192c0.461-0.724,0.925-1.454,1.392-2.188
				c0.509-0.709,1.022-1.422,1.537-2.139l0.787-1.072l0.847-1.037c0.564-0.696,1.146-1.381,1.725-2.073
				c0.608-0.669,1.235-1.327,1.865-1.983c1.219-1.353,2.634-2.533,3.977-3.778c0.681-0.614,1.432-1.152,2.145-1.728
				c0.729-0.559,1.43-1.151,2.197-1.654c0.76-0.513,1.52-1.023,2.285-1.518c0.383-0.247,0.76-0.502,1.146-0.741l1.188-0.665
				c0.793-0.435,1.584-0.867,2.37-1.298c0.39-0.22,0.798-0.403,1.206-0.584c0.406-0.183,0.811-0.365,1.215-0.546
				c0.81-0.353,1.615-0.704,2.414-1.053c0.816-0.305,1.64-0.573,2.448-0.853c0.81-0.277,1.611-0.55,2.411-0.795
				c0.812-0.209,1.617-0.409,2.414-0.597c0.795-0.192,1.581-0.38,2.357-0.552c0.786-0.135,1.564-0.25,2.331-0.36
				c3.049-0.533,5.974-0.56,8.621-0.645c1.335,0.065,2.603,0.109,3.805,0.19c0.601,0.045,1.184,0.074,1.749,0.13
				c0.566,0.076,1.114,0.15,1.644,0.238c1.059,0.173,2.043,0.312,2.948,0.485c0.452,0.088,0.885,0.149,1.296,0.249
				c0.411,0.098,0.802,0.209,1.172,0.308c2.96,0.787,4.589,1.384,4.589,1.384s-1.715,0.511-4.608,1.148
				c-1.448,0.272-3.179,0.822-5.135,1.288c-0.489,0.129-0.992,0.245-1.508,0.364c-0.514,0.141-1.037,0.314-1.573,0.476
				c-1.072,0.329-2.194,0.633-3.353,0.969c-2.289,0.801-4.757,1.548-7.243,2.6c-0.625,0.242-1.258,0.487-1.899,0.735
				c-0.622,0.296-1.252,0.582-1.888,0.869c-0.634,0.291-1.276,0.576-1.924,0.856c-0.627,0.326-1.259,0.656-1.897,0.988
				c-0.636,0.325-1.278,0.652-1.924,0.982c-0.623,0.369-1.25,0.74-1.881,1.114l-0.952,0.547c-0.319,0.18-0.639,0.361-0.939,0.578
				c-0.615,0.405-1.234,0.812-1.854,1.22l-0.937,0.602c-0.304,0.214-0.6,0.443-0.901,0.664c-0.598,0.448-1.205,0.885-1.815,1.32
				c-0.616,0.426-1.166,0.949-1.763,1.406c-0.58,0.481-1.19,0.923-1.748,1.433l-1.692,1.508c-0.277,0.256-0.575,0.489-0.845,0.755
				l-0.81,0.795c-0.544,0.526-1.087,1.051-1.629,1.575c-0.517,0.552-1.027,1.107-1.552,1.646l-0.782,0.812l-0.738,0.851
				c-0.498,0.562-0.994,1.122-1.487,1.678c-0.474,0.577-0.945,1.151-1.412,1.72c-0.237,0.284-0.473,0.567-0.708,0.849
				c-0.231,0.286-0.447,0.582-0.671,0.871c-0.45,0.579-0.896,1.153-1.338,1.722c-0.426,0.585-0.849,1.165-1.266,1.738
				c-0.862,1.134-1.614,2.313-2.418,3.426c-1.504,2.285-2.972,4.467-4.211,6.568c-1.285,2.08-2.411,4.044-3.412,5.806
				c-1.004,1.762-1.849,3.332-2.564,4.636c-0.704,1.321-1.256,2.359-1.633,3.067C498.623,251.99,498.421,252.375,498.421,252.375z"
				/>
			<path style="fill:#2B2B2B;" d="M499.633,250.385c0,0,0.078-0.064,0.23-0.189c0.154-0.122,0.381-0.313,0.688-0.534
				c0.611-0.456,1.527-1.09,2.742-1.817c1.213-0.728,2.723-1.551,4.513-2.377c0.891-0.433,1.864-0.807,2.889-1.239
				c1.033-0.396,2.128-0.801,3.288-1.173c2.316-0.765,4.89-1.412,7.66-1.942c0.694-0.119,1.401-0.229,2.118-0.337
				c0.359-0.053,0.72-0.115,1.084-0.161c0.366-0.038,0.734-0.076,1.103-0.114c0.741-0.075,1.491-0.158,2.251-0.213
				c0.763-0.034,1.533-0.068,2.31-0.103c0.778-0.038,1.565-0.046,2.359-0.022c0.795,0.019,1.595,0.037,2.401,0.056
				c0.806,0.065,1.617,0.13,2.432,0.196c0.408,0.037,0.817,0.075,1.227,0.113l1.228,0.177c0.822,0.115,1.644,0.251,2.47,0.381
				c0.822,0.164,1.643,0.348,2.466,0.536c1.656,0.324,3.269,0.887,4.9,1.364c0.812,0.25,1.598,0.592,2.396,0.885
				c0.792,0.314,1.595,0.592,2.361,0.964c0.77,0.362,1.537,0.724,2.294,1.1c0.379,0.188,0.76,0.368,1.134,0.562l1.094,0.632
				c0.722,0.427,1.442,0.852,2.157,1.275c0.716,0.421,1.369,0.937,2.047,1.397c0.664,0.479,1.325,0.956,1.98,1.429
				c0.629,0.507,1.231,1.038,1.836,1.551c0.603,0.515,1.198,1.027,1.771,1.55c0.55,0.55,1.088,1.099,1.613,1.646
				c0.527,0.545,1.046,1.084,1.548,1.623c0.476,0.565,0.934,1.132,1.38,1.693c1.855,2.186,3.241,4.514,4.541,6.591
				c0.569,1.099,1.124,2.134,1.616,3.134c0.242,0.502,0.489,0.982,0.706,1.461c0.201,0.489,0.396,0.962,0.57,1.427
				c0.351,0.93,0.694,1.781,0.971,2.588c0.138,0.403,0.288,0.778,0.397,1.155c0.111,0.375,0.201,0.741,0.292,1.084
				c0.729,2.741,0.986,4.329,0.986,4.329s-1.253-1.094-3.169-3.046c-0.923-0.999-2.199-2.087-3.516-3.39
				c-0.339-0.319-0.674-0.656-1.018-1.002c-0.36-0.333-0.749-0.658-1.136-0.999c-0.777-0.678-1.556-1.409-2.379-2.151
				c-1.73-1.402-3.501-2.969-5.512-4.405c-0.487-0.372-0.981-0.749-1.481-1.13c-0.528-0.344-1.053-0.699-1.579-1.058
				c-0.529-0.356-1.057-0.721-1.583-1.094c-0.552-0.333-1.11-0.67-1.672-1.01c-0.555-0.342-1.114-0.687-1.678-1.035
				c-0.582-0.311-1.169-0.624-1.759-0.94c-1.149-0.675-2.378-1.231-3.597-1.817l-0.911-0.448l-0.942-0.391
				c-0.631-0.256-1.257-0.526-1.883-0.798c-0.622-0.282-1.289-0.465-1.925-0.719c-0.647-0.228-1.278-0.499-1.939-0.697l-1.971-0.62
				c-0.33-0.097-0.651-0.222-0.986-0.309l-1.001-0.264c-0.668-0.172-1.33-0.361-1.994-0.543c-0.674-0.148-1.347-0.289-2.015-0.451
				l-1.002-0.237l-1.012-0.184c-0.674-0.131-1.344-0.26-2.01-0.39c-0.674-0.105-1.344-0.21-2.01-0.313
				c-0.334-0.055-0.666-0.11-0.997-0.164c-0.333-0.049-0.666-0.083-0.998-0.125c-0.664-0.076-1.323-0.171-1.978-0.258
				c-0.659-0.066-1.312-0.131-1.959-0.196c-1.295-0.157-2.575-0.206-3.828-0.329c-2.504-0.136-4.914-0.297-7.155-0.314
				c-2.247-0.065-4.33-0.06-6.197-0.052c-1.869,0.006-3.513,0.049-4.886,0.072C501.223,250.339,499.633,250.385,499.633,250.385z"/>
		</g>
		<g>
			<path style="fill:#2B2B2B;" d="M500.993,248.427c0,0-1.334-0.866-3.668-2.381c-1.161-0.734-2.543-1.627-4.136-2.604
				c-1.59-0.978-3.367-2.066-5.319-3.179c-1.923-1.151-4.065-2.267-6.274-3.453c-1.134-0.546-2.253-1.17-3.44-1.71
				c-0.585-0.281-1.177-0.565-1.775-0.852c-0.605-0.266-1.217-0.528-1.824-0.808c-0.305-0.137-0.608-0.281-0.917-0.413
				c-0.311-0.126-0.624-0.252-0.937-0.378c-0.622-0.258-1.249-0.517-1.879-0.778c-0.636-0.236-1.276-0.474-1.919-0.713l-0.96-0.369
				l-0.979-0.319c-0.655-0.209-1.303-0.439-1.955-0.663c-0.662-0.19-1.326-0.372-1.985-0.573l-0.992-0.295
				c-0.331-0.1-0.67-0.16-1.003-0.249l-2.006-0.496c-0.667-0.175-1.346-0.272-2.018-0.414c-0.676-0.114-1.341-0.305-2.018-0.388
				c-0.676-0.093-1.351-0.188-2.024-0.298l-1.008-0.156l-1.011-0.091c-1.346-0.134-2.684-0.299-4.017-0.32
				c-0.668-0.038-1.332-0.075-1.991-0.113c-0.662,0.004-1.319,0.007-1.971,0.011c-0.657-0.003-1.308-0.005-1.953-0.008
				c-0.643,0.045-1.284,0.082-1.921,0.11c-0.637,0.033-1.269,0.063-1.899,0.082c-0.626,0.066-1.243,0.131-1.853,0.195
				c-2.465,0.18-4.792,0.597-6.999,0.895c-1.089,0.206-2.134,0.425-3.151,0.599c-0.507,0.09-1.009,0.165-1.49,0.263
				c-0.473,0.116-0.935,0.23-1.39,0.326c-1.802,0.428-3.458,0.693-4.766,1.066c-2.652,0.671-4.291,0.953-4.291,0.953
				s1.046-1.222,3.094-3.184c0.256-0.245,0.523-0.511,0.813-0.774c0.289-0.265,0.612-0.507,0.94-0.78
				c0.656-0.545,1.393-1.094,2.176-1.705c0.391-0.307,0.803-0.61,1.229-0.923c0.434-0.296,0.894-0.578,1.363-0.881
				c0.94-0.599,1.952-1.193,3.01-1.836c2.19-1.098,4.586-2.365,7.307-3.267c0.673-0.247,1.359-0.494,2.06-0.728
				c0.71-0.2,1.433-0.39,2.167-0.581c0.733-0.195,1.478-0.384,2.234-0.567c0.761-0.149,1.536-0.276,2.319-0.403
				c0.783-0.123,1.574-0.264,2.375-0.37c0.806-0.063,1.618-0.126,2.435-0.19c0.819-0.04,1.645-0.141,2.475-0.128
				c0.831,0.011,1.667,0.022,2.506,0.033l1.263,0.029c0.42,0.028,0.839,0.073,1.26,0.11c0.842,0.074,1.686,0.163,2.531,0.254
				c0.847,0.081,1.679,0.261,2.518,0.405c0.834,0.165,1.683,0.281,2.507,0.49c1.64,0.441,3.311,0.799,4.894,1.384
				c0.8,0.267,1.598,0.537,2.385,0.825c0.773,0.319,1.546,0.63,2.308,0.96l1.141,0.488l1.106,0.542
				c0.73,0.368,1.457,0.734,2.179,1.098c0.698,0.403,1.391,0.803,2.08,1.201c0.69,0.392,1.358,0.808,2.003,1.245
				c0.645,0.434,1.285,0.863,1.919,1.289c0.621,0.442,1.218,0.903,1.812,1.352c0.296,0.225,0.59,0.449,0.883,0.671
				c0.288,0.229,0.563,0.47,0.842,0.701c0.556,0.466,1.102,0.927,1.634,1.39c2.091,1.894,3.952,3.785,5.532,5.643
				c0.798,0.921,1.523,1.837,2.199,2.712c0.651,0.902,1.288,1.728,1.823,2.561c1.098,1.637,1.961,3.125,2.618,4.378
				c0.659,1.253,1.112,2.271,1.396,2.978c0.148,0.348,0.243,0.63,0.31,0.814C500.96,248.331,500.993,248.427,500.993,248.427z"/>
			<path style="fill:#2B2B2B;" d="M501.566,248.876c0,0-1.59-0.046-4.372-0.126c-1.373-0.023-3.018-0.066-4.886-0.072
				c-1.867-0.008-3.95-0.014-6.197,0.052c-2.241,0.017-4.651,0.179-7.155,0.314c-1.253,0.123-2.532,0.173-3.828,0.329
				c-0.646,0.065-1.299,0.13-1.959,0.196c-0.655,0.087-1.315,0.182-1.978,0.258c-0.332,0.042-0.665,0.076-0.998,0.125
				c-0.331,0.055-0.664,0.109-0.997,0.164c-0.665,0.104-1.336,0.208-2.01,0.313c-0.666,0.129-1.336,0.259-2.01,0.39l-1.012,0.184
				l-1.002,0.237c-0.668,0.162-1.341,0.303-2.015,0.451c-0.664,0.182-1.326,0.372-1.994,0.543l-1.001,0.264
				c-0.334,0.087-0.655,0.212-0.986,0.309l-1.971,0.62c-0.66,0.198-1.291,0.468-1.939,0.697c-0.636,0.254-1.303,0.437-1.925,0.719
				c-0.626,0.272-1.252,0.542-1.884,0.798l-0.942,0.391l-0.911,0.448c-1.219,0.586-2.448,1.141-3.597,1.817
				c-0.59,0.315-1.177,0.628-1.759,0.94c-0.563,0.348-1.123,0.693-1.678,1.035c-0.562,0.34-1.12,0.676-1.672,1.01
				c-0.526,0.373-1.054,0.737-1.583,1.094c-0.527,0.359-1.051,0.714-1.579,1.058c-0.5,0.382-0.994,0.758-1.481,1.13
				c-2.011,1.436-3.782,3.003-5.512,4.405c-0.823,0.742-1.602,1.473-2.379,2.151c-0.387,0.341-0.776,0.666-1.136,0.999
				c-0.344,0.345-0.679,0.683-1.018,1.002c-1.316,1.302-2.593,2.391-3.516,3.39c-1.916,1.952-3.169,3.046-3.169,3.046
				s0.258-1.588,0.986-4.329c0.091-0.343,0.181-0.708,0.292-1.084c0.109-0.376,0.259-0.751,0.397-1.155
				c0.277-0.807,0.62-1.658,0.971-2.588c0.174-0.466,0.369-0.939,0.57-1.427c0.217-0.479,0.463-0.959,0.706-1.461
				c0.491-1,1.047-2.035,1.616-3.134c1.3-2.077,2.686-4.406,4.541-6.591c0.446-0.561,0.904-1.128,1.38-1.693
				c0.502-0.54,1.021-1.079,1.548-1.623c0.525-0.548,1.063-1.097,1.613-1.646c0.572-0.523,1.168-1.035,1.771-1.55
				c0.605-0.513,1.207-1.044,1.836-1.551c0.656-0.473,1.316-0.949,1.98-1.429c0.678-0.46,1.331-0.976,2.047-1.397
				c0.716-0.423,1.435-0.848,2.157-1.275l1.093-0.632c0.373-0.194,0.755-0.374,1.134-0.562c0.758-0.375,1.525-0.738,2.294-1.1
				c0.766-0.372,1.57-0.65,2.361-0.964c0.798-0.293,1.584-0.635,2.396-0.885c1.631-0.476,3.243-1.039,4.9-1.364
				c0.822-0.188,1.644-0.373,2.466-0.536c0.826-0.13,1.648-0.266,2.47-0.381l1.228-0.177c0.41-0.038,0.819-0.075,1.227-0.113
				c0.815-0.066,1.626-0.131,2.432-0.196c0.805-0.019,1.606-0.038,2.401-0.056c0.794-0.024,1.581-0.016,2.358,0.022
				c0.777,0.035,1.547,0.069,2.31,0.103c0.76,0.055,1.51,0.138,2.251,0.213c0.37,0.038,0.738,0.076,1.103,0.114
				c0.365,0.046,0.725,0.108,1.084,0.161c0.717,0.109,1.424,0.219,2.118,0.337c2.771,0.53,5.344,1.177,7.66,1.942
				c1.16,0.372,2.256,0.777,3.288,1.173c1.025,0.432,1.998,0.806,2.889,1.239c1.79,0.827,3.3,1.649,4.513,2.377
				c1.214,0.727,2.131,1.361,2.742,1.817c0.307,0.221,0.535,0.412,0.688,0.534C501.488,248.812,501.566,248.876,501.566,248.876z"/>
			<path style="fill:#2B2B2B;" d="M502.206,249.113c0,0-0.259,0.162-0.744,0.465c-0.472,0.292-1.164,0.719-2.044,1.263
				c-0.85,0.527-1.883,1.167-3.067,1.902c-1.164,0.721-2.45,1.537-3.815,2.422c-1.373,0.866-2.805,1.85-4.294,2.849
				c-0.726,0.534-1.494,1.025-2.234,1.584c-0.374,0.269-0.752,0.541-1.133,0.816c-0.372,0.285-0.742,0.578-1.123,0.855
				c-0.386,0.272-0.752,0.575-1.123,0.872c-0.372,0.293-0.747,0.588-1.124,0.884c-0.364,0.306-0.73,0.614-1.099,0.924l-0.558,0.454
				l-0.534,0.482c-0.354,0.325-0.721,0.633-1.085,0.948c-0.345,0.333-0.688,0.668-1.042,0.992c-0.72,0.638-1.355,1.352-2.042,2.019
				c-0.343,0.333-0.644,0.702-0.969,1.049c-0.309,0.361-0.666,0.683-0.96,1.053c-0.577,0.747-1.263,1.414-1.799,2.182
				c-0.575,0.741-1.172,1.465-1.684,2.237c-0.275,0.377-0.548,0.751-0.82,1.123c-0.25,0.389-0.498,0.775-0.745,1.158
				c-0.255,0.384-0.508,0.764-0.759,1.141c-0.221,0.394-0.449,0.783-0.682,1.168c-0.23,0.386-0.46,0.769-0.7,1.146
				c-0.209,0.393-0.416,0.781-0.621,1.164c-0.884,1.518-1.568,3.06-2.318,4.487c-0.32,0.73-0.638,1.436-0.964,2.113
				c-0.162,0.339-0.33,0.669-0.476,0.996c-0.131,0.33-0.259,0.652-0.399,0.964c-0.519,1.253-1.081,2.364-1.438,3.308
				c-0.77,1.881-1.36,3.009-1.36,3.009s-0.521-1.105-1.169-3.134c-0.366-1.016-0.587-2.261-0.872-3.721
				c-0.074-0.366-0.134-0.743-0.195-1.134c-0.048-0.39-0.078-0.791-0.119-1.206c-0.075-0.83-0.129-1.708-0.173-2.632
				c0.029-1.831,0.065-3.859,0.449-5.973c0.08-0.532,0.169-1.071,0.27-1.616c0.126-0.538,0.266-1.082,0.41-1.632
				c0.141-0.552,0.291-1.109,0.452-1.671c0.183-0.553,0.386-1.107,0.595-1.665c0.211-0.557,0.413-1.127,0.646-1.689
				c0.261-0.549,0.524-1.103,0.789-1.659c0.282-0.548,0.531-1.124,0.852-1.66c0.323-0.536,0.648-1.075,0.974-1.616l0.501-0.808
				l0.553-0.776c0.369-0.519,0.752-1.031,1.137-1.542c0.379-0.517,0.814-0.987,1.232-1.472c0.429-0.475,0.834-0.978,1.287-1.428
				c0.921-0.885,1.803-1.821,2.797-2.607c0.483-0.41,0.97-0.814,1.464-1.204c0.508-0.369,1.009-0.742,1.521-1.097
				c0.999-0.745,2.079-1.334,3.106-1.972c1.071-0.558,2.106-1.147,3.178-1.603c0.529-0.242,1.061-0.464,1.584-0.688
				c0.528-0.213,1.059-0.4,1.581-0.59c0.52-0.195,1.038-0.374,1.56-0.521c0.518-0.158,1.028-0.31,1.534-0.451
				c2.038-0.523,3.975-0.904,5.786-1.09c1.803-0.212,3.471-0.252,4.942-0.225c1.472,0.034,2.754,0.158,3.805,0.314
				c1.051,0.152,1.871,0.337,2.428,0.486C501.914,249.004,502.206,249.113,502.206,249.113z"/>
		</g>
	</g>
</g>
<g>
	<path style="fill:#2B2B2B;" d="M115.733,414.858h9.132l5.674,18.468c0.31,1.066,0.619,2.253,0.929,3.56
		c0.31,1.308,0.602,2.528,0.877,3.663c0.31,1.376,0.585,2.734,0.825,4.075h0.104c0.24-1.341,0.516-2.699,0.825-4.075
		c0.24-1.135,0.516-2.355,0.825-3.663c0.31-1.307,0.619-2.493,0.929-3.56l5.623-18.468h8.873l-12.69,38.381h-9.234L115.733,414.858z
		"/>
	<path style="fill:#2B2B2B;" d="M161.078,414.858h9.132l13.877,38.381h-9.286l-2.425-7.325h-13.929l-2.373,7.325h-8.821
		L161.078,414.858z M160.511,439.62h9.854l-2.321-7.171c-0.413-1.307-0.774-2.57-1.083-3.791c-0.31-1.221-0.568-2.313-0.774-3.276
		c-0.241-1.135-0.447-2.184-0.619-3.146h-0.103c-0.276,1.272-0.551,2.511-0.826,3.714c-0.275,1.032-0.559,2.142-0.851,3.328
		c-0.293,1.187-0.594,2.244-0.903,3.172L160.511,439.62z"/>
	<path style="fill:#2B2B2B;" d="M187.955,414.858h8.77v6.294c0,1.754-0.034,3.448-0.103,5.081c-0.069,1.634-0.138,2.966-0.207,3.998
		l14.342-15.373h10.523l-14.806,15.425l15.734,22.956h-10.266l-11.711-17.385l-3.508,3.662v13.723h-8.77V414.858z"/>
	<path style="fill:#2B2B2B;" d="M237.529,414.858h9.132l13.877,38.381h-9.286l-2.425-7.325h-13.929l-2.373,7.325h-8.821
		L237.529,414.858z M236.962,439.62h9.854l-2.321-7.171c-0.413-1.307-0.774-2.57-1.083-3.791c-0.31-1.221-0.568-2.313-0.774-3.276
		c-0.241-1.135-0.447-2.184-0.619-3.146h-0.103c-0.276,1.272-0.551,2.511-0.826,3.714c-0.275,1.032-0.559,2.142-0.851,3.328
		c-0.293,1.187-0.594,2.244-0.903,3.172L236.962,439.62z"/>
	<path style="fill:#2B2B2B;" d="M278.696,454.168c-2.579,0-4.9-0.293-6.964-0.877c-2.063-0.585-3.836-1.427-5.313-2.528
		c-1.479-1.1-2.623-2.467-3.431-4.101c-0.809-1.633-1.247-3.482-1.315-5.546h8.873c0.24,2.099,1.039,3.629,2.398,4.592
		c1.358,0.963,3.275,1.444,5.752,1.444c0.859,0,1.685-0.086,2.477-0.259c0.79-0.171,1.496-0.438,2.114-0.799
		c0.619-0.361,1.109-0.826,1.471-1.394s0.542-1.246,0.542-2.037c0-0.825-0.198-1.513-0.594-2.063
		c-0.396-0.55-0.972-1.015-1.729-1.393c-0.757-0.379-1.685-0.714-2.785-1.007c-1.102-0.291-2.339-0.593-3.715-0.902
		c-1.856-0.413-3.61-0.877-5.262-1.393c-1.65-0.517-3.095-1.195-4.333-2.038c-1.238-0.842-2.21-1.908-2.915-3.198
		s-1.058-2.932-1.058-4.927c0-1.994,0.379-3.714,1.136-5.158c0.756-1.445,1.805-2.64,3.146-3.586
		c1.341-0.945,2.923-1.65,4.746-2.115c1.822-0.464,3.8-0.696,5.933-0.696c2.097,0,4.04,0.241,5.829,0.723
		c1.788,0.481,3.336,1.204,4.643,2.166c1.307,0.964,2.355,2.159,3.147,3.586c0.79,1.428,1.255,3.087,1.393,4.978h-8.615
		c-0.241-1.513-0.929-2.682-2.063-3.508c-1.135-0.825-2.665-1.237-4.591-1.237c-1.823,0-3.285,0.36-4.385,1.083
		c-1.102,0.722-1.651,1.686-1.651,2.889c0,0.757,0.206,1.376,0.619,1.857s1.014,0.902,1.806,1.264
		c0.791,0.361,1.762,0.68,2.915,0.954c1.151,0.276,2.483,0.586,3.997,0.929c1.72,0.379,3.38,0.834,4.979,1.367
		c1.6,0.533,3.009,1.247,4.23,2.141c1.22,0.895,2.2,2.012,2.94,3.354c0.739,1.341,1.109,3.026,1.109,5.056
		c0,1.995-0.396,3.758-1.187,5.287c-0.792,1.531-1.884,2.82-3.276,3.869c-1.393,1.05-3.026,1.85-4.9,2.399
		C282.935,453.893,280.896,454.168,278.696,454.168z"/>
	<path style="fill:#2B2B2B;" d="M299.228,414.858h8.77v14.806h14.496v-14.806h8.771v38.381h-8.771v-16.25h-14.496v16.25h-8.77
		V414.858z"/>
	<path style="fill:#2B2B2B;" d="M348.854,414.858h9.132l13.877,38.381h-9.286l-2.425-7.325h-13.929l-2.373,7.325h-8.821
		L348.854,414.858z M348.286,439.62h9.854l-2.321-7.171c-0.413-1.307-0.774-2.57-1.083-3.791c-0.31-1.221-0.568-2.313-0.774-3.276
		c-0.241-1.135-0.447-2.184-0.619-3.146h-0.103c-0.276,1.272-0.551,2.511-0.826,3.714c-0.275,1.032-0.559,2.142-0.851,3.328
		c-0.293,1.187-0.594,2.244-0.903,3.172L348.286,439.62z"/>
	<path style="fill:#2B2B2B;" d="M388.163,414.858h8.977l10.11,16.663c0.585,0.997,1.178,2.072,1.78,3.224
		c0.602,1.152,1.16,2.244,1.677,3.276l1.806,3.61h0.103c-0.103-1.307-0.189-2.631-0.258-3.972c-0.069-1.135-0.121-2.355-0.154-3.663
		c-0.035-1.307-0.052-2.51-0.052-3.611v-15.527h8.408v38.381h-9.027l-10.008-16.456c-0.585-0.963-1.187-2.046-1.806-3.25
		s-1.187-2.321-1.702-3.354c-0.619-1.203-1.222-2.425-1.806-3.663h-0.104c0.068,1.342,0.137,2.683,0.206,4.024
		c0.069,1.135,0.129,2.355,0.181,3.662c0.052,1.308,0.078,2.512,0.078,3.611v15.425h-8.409V414.858z"/>
	<path style="fill:#2B2B2B;" d="M439.44,414.858h28.786v7.325H448.21v7.635h17.334v6.965H448.21v8.925h20.377v7.531H439.44V414.858z
		"/>
	<path style="fill:#2B2B2B;" d="M484.425,433.172l-11.813-18.313h10.06l3.095,5.21c0.446,0.757,0.895,1.573,1.342,2.451
		c0.446,0.877,0.858,1.711,1.237,2.502c0.413,0.895,0.843,1.823,1.29,2.785h0.104c0.412-0.962,0.842-1.891,1.289-2.785
		c0.378-0.791,0.8-1.625,1.265-2.502c0.464-0.878,0.919-1.694,1.366-2.451l3.147-5.21h9.595l-11.606,18.262l12.793,20.119h-10.42
		l-3.869-6.758c-0.447-0.756-0.886-1.591-1.315-2.502c-0.431-0.911-0.835-1.762-1.213-2.554c-0.412-0.929-0.825-1.857-1.238-2.786
		h-0.103c-0.413,0.929-0.844,1.857-1.29,2.786c-0.379,0.792-0.8,1.643-1.264,2.554c-0.465,0.911-0.921,1.746-1.367,2.502
		l-3.973,6.758h-10.008L484.425,433.172z"/>
	<path style="fill:#2B2B2B;" d="M511.662,414.858h17.075c4.471,0,7.893,1.187,10.266,3.56c1.169,1.17,2.072,2.52,2.709,4.05
		c0.636,1.53,0.954,3.241,0.954,5.133c0,1.823-0.302,3.491-0.902,5.004c-0.603,1.514-1.463,2.812-2.58,3.895
		c-1.118,1.084-2.468,1.927-4.049,2.528c-1.583,0.602-3.371,0.902-5.365,0.902h-9.183v13.31h-8.925V414.858z M520.587,432.966h7.479
		c1.857,0,3.276-0.481,4.257-1.444c0.979-0.963,1.47-2.271,1.47-3.921c0-1.685-0.49-2.983-1.47-3.895
		c-0.98-0.911-2.383-1.367-4.205-1.367h-7.531V432.966z"/>
	<path style="fill:#2B2B2B;" d="M547.05,414.858h8.77v30.85h17.694v7.531H547.05V414.858z"/>
	<path style="fill:#2B2B2B;" d="M594.562,454.168c-2.924,0-5.555-0.499-7.893-1.496c-2.339-0.997-4.333-2.39-5.984-4.179
		c-1.65-1.788-2.915-3.902-3.792-6.345s-1.315-5.09-1.315-7.945c0-2.889,0.438-5.554,1.315-7.995
		c0.877-2.442,2.142-4.548,3.792-6.32c1.651-1.771,3.646-3.163,5.984-4.178c2.338-1.015,4.969-1.522,7.893-1.522
		c2.889,0,5.502,0.508,7.842,1.522c2.338,1.015,4.333,2.407,5.983,4.178c1.651,1.772,2.915,3.878,3.792,6.32
		c0.877,2.441,1.315,5.106,1.315,7.995c0,2.855-0.438,5.503-1.315,7.945s-2.141,4.557-3.792,6.345
		c-1.65,1.789-3.646,3.182-5.983,4.179C600.063,453.669,597.45,454.168,594.562,454.168z M594.613,446.945
		c1.65,0,3.095-0.326,4.333-0.979s2.271-1.548,3.096-2.683s1.444-2.477,1.857-4.024c0.412-1.547,0.618-3.231,0.618-5.056
		c0-1.822-0.206-3.516-0.618-5.081c-0.413-1.564-1.032-2.932-1.857-4.101s-1.857-2.081-3.096-2.734s-2.683-0.98-4.333-0.98
		s-3.104,0.327-4.359,0.98c-1.256,0.653-2.305,1.565-3.146,2.734c-0.843,1.169-1.479,2.536-1.909,4.101
		c-0.43,1.565-0.645,3.259-0.645,5.081c0,1.824,0.215,3.509,0.645,5.056c0.43,1.548,1.066,2.89,1.909,4.024
		c0.842,1.135,1.891,2.029,3.146,2.683C591.509,446.619,592.963,446.945,594.613,446.945z"/>
	<path style="fill:#2B2B2B;" d="M618.395,414.858h18.262c1.857,0,3.586,0.241,5.185,0.723c1.6,0.481,2.983,1.195,4.153,2.141
		c1.168,0.946,2.089,2.098,2.76,3.456c0.67,1.359,1.006,2.915,1.006,4.669c0,2.27-0.567,4.196-1.702,5.777
		c-1.136,1.582-2.94,2.769-5.417,3.56v0.155c1.926,0.585,3.344,1.453,4.256,2.604c0.911,1.153,1.504,2.76,1.779,4.823
		c0.172,1.308,0.301,2.537,0.388,3.688c0.085,1.153,0.171,2.185,0.258,3.096c0.085,0.912,0.197,1.65,0.335,2.218
		c0.137,0.568,0.361,0.921,0.671,1.058v0.413h-8.667c-0.275-0.137-0.473-0.481-0.593-1.032c-0.121-0.549-0.225-1.229-0.31-2.037
		c-0.087-0.808-0.164-1.711-0.232-2.708c-0.069-0.997-0.154-2.029-0.258-3.096c-0.241-1.926-0.869-3.37-1.883-4.333
		c-1.015-0.963-2.589-1.444-4.721-1.444h-6.5v14.65h-8.77V414.858z M627.164,432.089h7.79c1.96,0,3.456-0.456,4.488-1.367
		c1.031-0.911,1.547-2.141,1.547-3.688c0-1.582-0.473-2.846-1.418-3.792c-0.946-0.945-2.399-1.419-4.359-1.419h-8.048V432.089z"/>
	<path style="fill:#2B2B2B;" d="M655.279,414.858h28.786v7.325h-20.017v7.635h17.334v6.965h-17.334v8.925h20.377v7.531h-29.146
		V414.858z"/>
</g>
<g>
	<g>
		<path style="fill:#2B2B2B;" d="M448.389,280.553c-23.331-18.461-59.972-0.47-59.972-0.47s-29.4,24.437-24.503,54.74
			c0,0,14.803-15.156,31.864-12.322c0,0,8.131-14.297,28.159-18.09C427.65,287.831,448.389,280.553,448.389,280.553z"/>
		<g>
			<path style="fill:#2B2B2B;" d="M444.537,366.73c-1.091,0.701-2.544,0.385-3.245-0.707l-32.352-50.359
				c-0.701-1.091-0.385-2.544,0.707-3.245c1.091-0.701,2.544-0.385,3.245,0.707l32.352,50.359
				C445.944,364.576,445.628,366.029,444.537,366.73z"/>
		</g>
		<g>
			<line style="fill:#2B2B2B;" x1="383.184" y1="272.648" x2="384.947" y2="275.391"/>
			<path style="fill:#2B2B2B;" d="M386.216,277.367c-1.091,0.701-2.544,0.385-3.245-0.707l-1.763-2.744
				c-0.701-1.091-0.385-2.544,0.707-3.245c1.091-0.701,2.544-0.385,3.245,0.707l1.763,2.744
				C387.624,275.213,387.307,276.666,386.216,277.367z"/>
		</g>
	</g>
</g>
<g>
	<defs>
		<circle id="SVGID_1_" cx="594.226" cy="434.061" r="18.095"/>
	</defs>
	<clipPath id="SVGID_2_">
		<use xlink:href="#SVGID_1_"  style="overflow:visible;"/>
	</clipPath>
	<g transform="matrix(1 0 0 1 0 3.051758e-005)" style="clip-path:url(#SVGID_2_);">
		
			<image style="overflow:visible;" width="314" height="306" xlink:href="eswatini_flag.png"  transform="matrix(0.1559 0 0 0.1559 569.743 410.2016)">
		</image>
	</g>
</g>
<g>
	<path style="fill:#AE252A;" d="M593.993,456.668c-12.337,0-22.374-10.037-22.374-22.374s10.037-22.374,22.374-22.374
		s22.374,10.037,22.374,22.374S606.33,456.668,593.993,456.668z M593.993,416.92c-9.58,0-17.374,7.794-17.374,17.374
		s7.794,17.374,17.374,17.374s17.374-7.794,17.374-17.374S603.573,416.92,593.993,416.92z"/>
</g>
</svg>
